<svg width="109" height="17" viewBox="0 0 109 17" fill="none" xmlns="http://www.w3.org/2000/svg">
<path d="M8.5 0L10.4084 5.87336L16.584 5.87336L11.5878 9.50329L13.4962 15.3766L8.5 11.7467L3.50383 15.3766L5.41219 9.50329L0.416019 5.87336L6.59163 5.87336L8.5 0Z" fill="#E98815"/>
<path d="M31.5 0L33.4084 5.87336L39.584 5.87336L34.5878 9.50329L36.4962 15.3766L31.5 11.7467L26.5038 15.3766L28.4122 9.50329L23.416 5.87336L29.5916 5.87336L31.5 0Z" fill="#E98815"/>
<path d="M54.5 0L56.4084 5.87336L62.584 5.87336L57.5878 9.50329L59.4962 15.3766L54.5 11.7467L49.5038 15.3766L51.4122 9.50329L46.416 5.87336L52.5916 5.87336L54.5 0Z" fill="#E98815"/>
<path d="M77.5 0L79.4084 5.87336L85.584 5.87336L80.5878 9.50329L82.4962 15.3766L77.5 11.7467L72.5038 15.3766L74.4122 9.50329L69.416 5.87336L75.5916 5.87336L77.5 0Z" fill="#E98815"/>
<path d="M100.5 0L102.408 5.87336L108.584 5.87336L103.588 9.50329L105.496 15.3766L100.5 11.7467L95.5038 15.3766L97.4122 9.50329L92.416 5.87336L98.5916 5.87336L100.5 0Z" fill="#E98815"/>
</svg>
