<?xml version="1.0" encoding="utf-8"?>
<!-- Generator: Adobe Illustrator 22.0.0, SVG Export Plug-In . SVG Version: 6.00 Build 0)  -->
<svg version="1.1" id="Layer_1" xmlns="http://www.w3.org/2000/svg" xmlns:xlink="http://www.w3.org/1999/xlink" x="0px" y="0px"
	 viewBox="0 0 1150 570" style="enable-background:new 0 0 1150 570;" xml:space="preserve">
<style type="text/css">
	.st0{fill:#00A0E9;}
</style>
<g>
	<path d="M415.7,345.7c-9.9-3-17.7-7-23.4-12l8.8-19.8c5.6,4.4,12.5,8.1,20.7,10.9c8.2,2.8,16.4,4.2,24.6,4.2
		c10.2,0,17.8-1.6,22.9-4.9c5-3.3,7.6-7.6,7.6-12.9c0-3.9-1.4-7.2-4.2-9.7c-2.8-2.5-6.4-4.5-10.7-6c-4.3-1.4-10.2-3.1-17.7-4.9
		c-10.5-2.5-18.9-5-25.4-7.5c-6.5-2.5-12-6.4-16.7-11.7c-4.6-5.3-7-12.5-7-21.5c0-7.6,2.1-14.5,6.2-20.7
		c4.1-6.2,10.3-11.1,18.6-14.8c8.3-3.7,18.5-5.5,30.5-5.5c8.4,0,16.6,1,24.7,3.1c8.1,2.1,15.1,5.1,21,9l-8,19.8
		c-6-3.5-12.3-6.2-18.8-8c-6.5-1.8-12.9-2.7-19-2.7c-10.1,0-17.6,1.7-22.5,5.1c-4.9,3.4-7.4,7.9-7.4,13.5c0,3.9,1.4,7.1,4.2,9.6
		c2.8,2.5,6.4,4.4,10.7,5.9c4.3,1.4,10.2,3.1,17.7,4.9c10.2,2.4,18.6,4.8,25.1,7.4c6.5,2.5,12.1,6.4,16.8,11.7
		c4.6,5.2,7,12.3,7,21.2c0,7.6-2.1,14.5-6.2,20.6c-4.1,6.1-10.4,11.1-18.7,14.7c-8.4,3.7-18.6,5.5-30.6,5.5
		C435.8,350.2,425.6,348.7,415.7,345.7z"/>
	<path d="M626.3,243.5v104.8H603v-13.3c-3.9,4.7-8.8,8.3-14.7,10.9s-12.2,3.8-19,3.8c-14,0-25-3.9-33.1-11.7
		c-8-7.8-12.1-19.3-12.1-34.6v-59.8h24.5V300c0,9.4,2.1,16.4,6.4,21.1c4.2,4.6,10.3,7,18.1,7c8.8,0,15.7-2.7,20.9-8.1
		c5.2-5.4,7.7-13.2,7.7-23.4v-53H626.3z"/>
	<path d="M743.9,249c8,4.4,14.4,10.7,18.9,18.8c4.6,8.1,6.9,17.5,6.9,28.1c0,10.6-2.3,20-6.9,28.1c-4.6,8.2-10.9,14.5-18.9,18.9
		c-8,4.4-17.2,6.7-27.4,6.7c-14.1,0-25.3-4.7-33.5-14.1v50.8h-24.5V243.5h23.3v13.7c4.1-5,9.1-8.7,15-11.2
		c5.9-2.5,12.5-3.7,19.7-3.7C726.7,242.3,735.9,244.6,743.9,249z M736,319.6c5.8-6,8.7-13.9,8.7-23.7c0-9.8-2.9-17.7-8.7-23.7
		c-5.8-6-13.2-9-22.3-9c-5.9,0-11.2,1.3-15.9,4c-4.7,2.7-8.4,6.5-11.2,11.5c-2.7,5-4.1,10.7-4.1,17.3c0,6.5,1.4,12.3,4.1,17.3
		c2.7,5,6.5,8.8,11.2,11.5c4.7,2.7,10,4,15.9,4C722.8,328.6,730.2,325.6,736,319.6z"/>
	<path d="M853.6,242.3v23.3c-2.1-0.4-4-0.6-5.7-0.6c-9.5,0-17,2.8-22.4,8.3c-5.4,5.6-8,13.6-8,24v50.8H793V243.5h23.3v15.3
		C823.4,247.8,835.9,242.3,853.6,242.3z"/>
	<path d="M958.6,316.5h-68.7l-13.5,31.8h-26.3L911.9,211H937l62,137.3h-26.7L958.6,316.5z M950.2,296.5l-25.9-60l-25.7,60H950.2z"/>
	<path d="M1016.5,211h25.5v137.3h-25.5V211z"/>
</g>
<polyline class="st0" points="108.2,426.7 257.3,128.5 331.1,351.1 257.3,277.3 "/>
</svg>
